<?xml version="1.0" encoding="UTF-8"?>
<svg width="176px" height="50px" viewBox="0 0 176 50" version="1.1" xmlns="http://www.w3.org/2000/svg" xmlns:xlink="http://www.w3.org/1999/xlink">
    <!-- Generator: Sketch 55 (78076) - https://sketchapp.com -->
    <title>Group 16</title>
    <desc>Created with Sketch.</desc>
    <defs>
        <polygon id="path-1" points="0.000569476467 1.51258824 30.3079897 1.51258824 30.3079897 35.5556118 0.000569476467 35.5556118"></polygon>
    </defs>
    <g id="Symbols" stroke="none" stroke-width="1" fill="none" fill-rule="evenodd">
        <g id="header" transform="translate(0.000000, -1.000000)">
            <g id="Group">
                <g id="Group-16">
                    <path d="M169.022641,20.4890706 C168.590822,25.3740118 164.272632,29.3443647 159.399028,29.3397765 C154.523899,29.3336588 150.909132,25.3541294 151.342477,20.4691882 C151.774296,15.5827176 156.090959,11.6123647 160.966089,11.6184824 C165.841218,11.6246 169.454459,15.6041294 169.022641,20.4890706 M161.542865,5.10165882 C153.081959,5.09248235 145.589977,11.9824824 144.839253,20.4615412 C144.090054,28.9390706 150.362873,35.8458941 158.822253,35.8550706 C167.281632,35.8657765 174.775141,28.9757765 175.524339,20.4967176 C176.273537,12.0176588 170.002244,5.11236471 161.542865,5.10165882" id="Fill-1" fill="#94C01F"></path>
                    <path d="M102.66473,20.4748471 C102.232911,25.3613176 97.9147216,29.3316706 93.0395922,29.3255529 C88.1659888,29.3194353 84.5512216,25.3399059 84.9830405,20.4549647 C85.4148595,15.5684941 89.7330491,11.5996706 94.6081784,11.6042588 C99.4833078,11.6103765 103.096549,15.5899059 102.66473,20.4748471 M109.384627,5.51567059 L105.092377,5.51108235 C104.483558,5.50955294 103.943403,6.00661176 103.889997,6.61684706 L103.775558,7.91990588 C101.340282,6.06778824 98.3846871,5.09202353 95.1834284,5.08743529 C86.7240491,5.07825882 79.2320664,11.9682588 78.4813422,20.4473176 C77.732144,28.9248471 84.0049629,35.8316706 92.4628164,35.8408471 C95.7754629,35.8454353 99.1216784,34.7549647 101.944523,32.7636706 C102.498411,34.3634353 104.009015,35.4447294 105.777489,35.4462588 L107.843506,35.4493176 L110.391696,6.62449412 C110.446627,6.01425882 109.994972,5.5172 109.384627,5.51567059" id="Fill-3" fill="#94C01F"></path>
                    <path d="M69.7514276,20.4367647 C69.3196086,25.3217059 65.0029448,29.2920588 60.1278155,29.2874706 C55.2526862,29.2813529 51.637919,25.3018235 52.0712638,20.4153529 C52.5030828,15.5304118 56.8197466,11.5600588 61.6948759,11.5661765 C66.5700052,11.5722941 70.1832466,15.5518235 69.7514276,20.4367647 M62.2716517,5.04935294 C59.0703931,5.04629412 55.9423759,6.01441176 53.1805655,7.85888235 L53.296531,6.55735294 C53.3499362,5.94711765 52.898281,5.45005882 52.2894621,5.44852941 L47.9972121,5.44394118 C47.3883931,5.44394118 46.8482379,5.93947059 46.7948328,6.54970588 L42.9633931,49.8672353 L45.0278845,49.8702941 C47.4738414,49.8733529 49.6405655,47.8805294 49.8572379,45.4288824 L50.9604362,32.9718235 C53.3941862,34.8239412 56.349781,35.7997059 59.5510397,35.8027647 C68.010419,35.8134706 75.5039276,28.9219412 76.2531259,20.4444118 C77.00385,11.9653529 70.731031,5.06005882 62.2716517,5.04935294" id="Fill-5" fill="#94C01F"></path>
                    <path d="M135.876797,20.3665647 C135.444978,25.2515059 131.126788,29.2218588 126.251659,29.2157412 C121.378055,29.2111529 117.763288,25.2316235 118.195107,20.3451529 C118.390417,18.1412706 119.392909,16.0291529 121.019478,14.3972706 C122.861193,12.5573882 125.339193,11.5036235 127.818719,11.5066824 C130.298245,11.5082118 132.59009,12.5680941 134.103745,14.4110353 C135.441926,16.0459765 136.072107,18.1626824 135.876797,20.3665647 L135.876797,20.3665647 Z M143.536624,7.02703529 C143.612917,6.15374118 142.967478,5.44103529 142.09621,5.44103529 L138.801874,5.43644706 C137.929081,5.43491765 137.156995,6.14609412 137.080702,7.01938824 L137.008986,7.82691765 C134.570659,5.96409412 131.60896,4.98221176 128.397021,4.97915294 C119.936116,4.96997647 112.444133,11.8599765 111.693409,20.3375059 C111.354667,24.1717412 112.451762,27.8484471 114.781753,30.6900941 C117.401659,33.8972706 121.371952,35.7386824 125.674883,35.7432706 C128.888348,35.7478588 132.023995,34.7705647 134.790383,32.9123294 L134.593547,35.1422118 C134.501995,36.1806824 134.233443,37.1977412 133.797047,38.1658588 C133.372857,39.1049176 132.800659,39.9766824 132.094184,40.7551529 C131.39534,41.5259765 130.589684,42.1820941 129.697055,42.7020941 C128.787641,43.2343294 127.817193,43.6105647 126.81165,43.8200941 C125.842728,44.0219765 124.884486,44.0143294 123.874366,44.0082118 L123.372357,44.0051529 C121.263616,44.0036235 119.392909,45.7609176 119.202176,47.9250353 L118.976348,50.4791529 L120.869943,50.4822118 C121.39484,50.4837412 121.921262,50.4868 122.447684,50.4868 C122.963426,50.4868 123.479167,50.4868 123.994909,50.4852706 L124.498443,50.4806824 C125.613848,50.4730353 126.730779,50.3445647 127.820245,50.1013882 C128.889874,49.8628 129.947297,49.5110353 130.961995,49.0552706 C131.961434,48.6071529 132.924253,48.0565647 133.82909,47.4203294 C134.726297,46.7871529 135.570098,46.0652706 136.336081,45.2745647 C137.10359,44.4808 137.797857,43.6120941 138.399047,42.6929176 C139.009391,41.7615059 139.526659,40.7719765 139.937116,39.7533882 C140.358253,38.7103294 140.669529,37.6275059 140.86484,36.5324471 C140.94571,36.0766824 141.008271,35.6117412 141.049469,35.1498588 L143.536624,7.02703529 Z" id="Fill-7" fill="#94C01F"></path>
                    <g id="Group-11" transform="translate(0.000000, 0.016671)">
                        <mask id="mask-2" fill="white">
                            <use xlink:href="#path-1"></use>
                        </mask>
                        <g id="Clip-10"></g>
                        <path d="M0.0215146552,34.8367882 C-0.025787069,35.0080824 0.00778189655,35.1870235 0.114592241,35.3277294 C0.213773276,35.4592588 0.363307759,35.5357294 0.525049138,35.5357294 L17.8863078,35.5556118 L17.8985147,35.5556118 C23.481644,35.5556118 29.0739284,30.8083176 30.1130405,25.1816118 C30.6394629,22.3353765 30.0947302,19.8393765 28.5398767,17.9627882 C26.9056784,15.9913765 24.2567819,14.8580824 21.269144,14.8550235 C21.269144,14.8550235 13.9389026,14.8611412 13.8229371,14.8626706 C13.0188078,14.8779647 12.2558767,14.8902 11.5143078,14.3702 C10.7284888,13.8211412 10.2936181,12.8514941 10.3805922,11.8420824 C10.5133422,10.2927882 11.8301612,8.97290588 13.3163509,8.89949412 C13.3453422,8.89490588 24.1209802,8.90561176 24.1209802,8.90561176 L24.1270836,8.90561176 C26.225144,8.90561176 28.0958509,7.43125882 28.6772043,5.31608235 L29.5240578,2.23431765 C29.5713595,2.06149412 29.5377905,1.88408235 29.4309802,1.74337647 C29.3317991,1.61031765 29.1807388,1.53537647 29.0189974,1.53537647 C29.0189974,1.53537647 17.750506,1.52008235 17.3568336,1.51702353 C13.4658853,1.49408235 10.8978595,1.47878824 8.20776466,3.39055294 C5.38491983,5.40478824 3.73393707,8.21278824 3.30059224,11.7380824 C2.88860948,15.1318471 4.110825,18.2549059 6.65443707,20.3058471 C7.1518681,20.6989059 7.62488534,21.0093765 8.10095431,21.2525529 C8.61364397,21.5156118 9.12023017,21.6976118 9.64970431,21.8107882 C10.7681612,22.0524353 11.9644371,22.0478471 13.1210405,22.0432588 C13.1210405,22.0432588 17.065394,22.0386706 17.6330147,22.0356118 L18.0434716,22.0371412 L18.7224802,19.5809059 C18.7697819,19.4004353 18.9055836,19.2582 19.0856353,19.2062 C19.2626353,19.1526706 19.4487905,19.1970235 19.5845922,19.3224353 L24.322394,24.3572588 C24.5405922,24.5530235 24.6611353,24.8711412 24.6306181,25.2060824 C24.6001009,25.5410235 24.4231009,25.8331412 24.1438681,26.0090235 L16.8944974,30.8939647 C16.711394,31.0010235 16.4977733,30.9887882 16.3329802,30.8649059 C16.1636095,30.7364353 16.0888422,30.5192588 16.1422474,30.3082 L16.5649112,28.1777294 L5.93880776,28.1654941 L5.93423017,28.1654941 C3.53099741,28.1654941 1.39173879,29.8554941 0.727988793,32.2750235 L0.0215146552,34.8367882 Z" id="Fill-9" fill="#FEFEFE" mask="url(#mask-2)"></path>
                    </g>
                    <path d="M41.9036819,11.297 L39.7583198,34.5685294 C39.7110181,35.1497059 39.2273198,35.5978235 38.6459664,35.5962941 L34.2041819,35.5917059 C33.5511129,35.5917059 33.0384233,35.0334706 33.0933543,34.3819412 L35.264656,11.1088824 C35.3119578,10.5292353 35.7971819,10.0826471 36.3770095,10.0826471 L40.7928543,10.0872353 C41.4443974,10.0887647 41.9570871,10.647 41.9036819,11.297" id="Fill-12" fill="#FEFEFE"></path>
                    <path d="M41.1065716,7.35845882 C41.6802957,7.35845882 42.1594164,6.91951765 42.2097698,6.34751765 L42.606494,2.58975294 C42.6583733,2.00704706 42.2357095,1.53445882 41.6619853,1.53445882 L37.163744,1.52987059 C36.5900198,1.52834118 36.0834336,1.9994 36.0315543,2.58057647 L35.6241491,6.13951765 C35.5615888,6.78951765 36.0727526,7.35234118 36.7242957,7.35387059 L41.1065716,7.35845882 Z" id="Fill-14" fill="#FEFEFE"></path>
                </g>
            </g>
        </g>
    </g>
</svg>